<svg height='100px' width='100px'  fill="#000000" xmlns="http://www.w3.org/2000/svg" xmlns:xlink="http://www.w3.org/1999/xlink" version="1.1" x="0px" y="0px" viewBox="0 0 90 90" enable-background="new 0 0 90 90" xml:space="preserve"><path d="M12.35,67.039c5.779,0,10.48,4.701,10.48,10.48S18.129,88,12.35,88S1.87,83.299,1.87,77.52S6.571,67.039,12.35,67.039   M12.35,65.039c-6.893,0-12.48,5.588-12.48,12.48S5.458,90,12.35,90s12.48-5.588,12.48-12.48S19.243,65.039,12.35,65.039  L12.35,65.039z"></path><path d="M21.364,70.718l-1.414-1.414l4.243-4.242l1.414,1.414L21.364,70.718z M28.435,63.646l-1.414-1.414l4.243-4.242l1.414,1.414  L28.435,63.646z M35.506,56.576l-1.414-1.414l4.243-4.243l1.414,1.414L35.506,56.576z M42.577,49.505l-1.414-1.414l4.242-4.243  l1.414,1.414L42.577,49.505z M49.648,42.434l-1.414-1.414l4.242-4.243l1.414,1.414L49.648,42.434z M56.72,35.363l-1.414-1.414  l4.242-4.243l1.414,1.414L56.72,35.363z M63.79,28.292l-1.414-1.414l3.298-3.297l1.414,1.414L63.79,28.292z"></path><path d="M83.971,25.15l-6.78-6.78l-6.78,6.78l-5.229-5.228l6.78-6.78l-6.78-6.78l5.229-5.228l6.78,6.78l6.78-6.78l5.228,5.228  l-6.78,6.78l6.78,6.78L83.971,25.15z M68.01,19.922l2.4,2.4l6.78-6.78l6.78,6.78l2.399-2.4l-6.78-6.78l6.78-6.78l-2.399-2.4  l-6.78,6.78l-6.78-6.78l-2.4,2.4l6.78,6.78L68.01,19.922z"></path><g><polygon fill="#000000" points="53.052,25.751 64.648,37.348 67.866,22.534  "></polygon><path d="M65.252,25.148l-1.78,8.195l-6.415-6.415L65.252,25.148 M67.866,22.534l-14.814,3.217l11.597,11.597L67.866,22.534   L67.866,22.534z"></path></g></svg>