<svg height='100px' width='100px'  fill="#000000" xmlns="http://www.w3.org/2000/svg" xmlns:xlink="http://www.w3.org/1999/xlink" version="1.1" x="0px" y="0px" viewBox="0 0 60 60" style="enable-background:new 0 0 60 60;" xml:space="preserve"><g><path d="M59,0H1C0.448,0,0,0.448,0,1v58c0,0.552,0.448,1,1,1h58c0.552,0,1-0.448,1-1V1C60,0.448,59.552,0,59,0z M58,58H2V2h56V58z"></path><path d="M9,51h6c0.552,0,1-0.448,1-1v-6V18c0-0.012-0.007-0.023-0.007-0.035c-0.004-0.107-0.018-0.214-0.056-0.316l-3-8   C12.79,9.259,12.417,9,12,9s-0.79,0.259-0.937,0.649l-3,8c-0.038,0.103-0.053,0.209-0.056,0.316C8.007,17.977,8,17.988,8,18v26v6   C8,50.552,8.448,51,9,51z M14,43h-1V19h1V43z M11,43h-1V19h1V43z M14,49h-4v-4h4V49z M12,12.848L13.557,17h-3.114L12,12.848z"></path><rect x="17" y="9" width="36" height="2"></rect><rect x="19" y="49" width="34" height="2"></rect><path d="M31,17c-4.962,0-9,4.038-9,9c0,3.052,1.527,5.871,4.085,7.541l1.094-1.675C25.188,30.567,24,28.374,24,26   c0-3.86,3.14-7,7-7c2.327,0,4.496,1.152,5.802,3.083l1.656-1.121C36.78,18.481,33.992,17,31,17z"></path><path d="M30,26v16c0,0.552,0.448,1,1,1h16c0.552,0,1-0.448,1-1V26c0-0.552-0.448-1-1-1H31C30.448,25,30,25.448,30,26z M32,27h14v14   H32V27z"></path><rect x="38" y="37" width="2" height="2"></rect><rect x="42" y="37" width="2" height="2"></rect><rect x="42" y="33" width="2" height="2"></rect><rect x="18" y="13" width="2" height="2"></rect><rect x="50" y="13" width="2" height="2"></rect><rect x="22" y="45" width="2" height="2"></rect><rect x="50" y="45" width="2" height="2"></rect><rect x="19" y="36" width="6" height="2"></rect><rect x="19" y="40" width="6" height="2"></rect><rect x="46" y="17" width="6" height="2"></rect><rect x="46" y="21" width="6" height="2"></rect></g></svg>