<svg height='100px' width='100px'  fill="#000000" xmlns="http://www.w3.org/2000/svg" xmlns:xlink="http://www.w3.org/1999/xlink" version="1.1" x="0px" y="0px" viewBox="0 0 66 66" enable-background="new 0 0 66 66" xml:space="preserve"><g><path d="M61.1,9.3H54V5.2c0-1.9-1.5-3.4-3.4-3.4s-3.4,1.5-3.4,3.4v4.1H18.8V5.2c0-1.9-1.5-3.4-3.4-3.4S12,3.4,12,5.2v4.1H4.9   C2.7,9.3,1,11.1,1,13.2v47.1c0,2.1,1.7,3.9,3.9,3.9h56.2c2.1,0,3.9-1.7,3.9-3.9V13.2C65,11.1,63.3,9.3,61.1,9.3z M50.6,3.8   c0.8,0,1.5,0.7,1.5,1.5v7.9c0,0.8-0.7,1.5-1.5,1.5c-0.8,0-1.5-0.7-1.5-1.5c0-0.2,0-8,0-7.9C49.1,4.4,49.8,3.8,50.6,3.8z M15.4,3.8   c0.8,0,1.5,0.7,1.5,1.5v7.9c0,0.8-0.7,1.5-1.5,1.5c-0.8,0-1.5-0.7-1.5-1.5c0-0.2,0-8,0-7.9C14,4.4,14.6,3.8,15.4,3.8z M4.9,11.3H12   v1.9c0,1.9,1.5,3.4,3.4,3.4s3.4-1.5,3.4-3.4v-1.9h28.4v1.9c0,1.9,1.5,3.4,3.4,3.4S54,15,54,13.1v-1.9h7.2c1.1,0,1.9,0.9,1.9,1.9   v5.6H2.9v-5.6C2.9,12.1,3.8,11.3,4.9,11.3z M61.1,62.2H4.9c-1.1,0-1.9-0.9-1.9-1.9V20.7h60.1v39.6C63.1,61.4,62.2,62.2,61.1,62.2z"></path><path d="M44,36.6h-7.8c-0.5,0-1,0.4-1,1v7.8c0,0.5,0.4,1,1,1H44c0.5,0,1-0.4,1-1v-7.8C45,37.1,44.5,36.6,44,36.6z M43,44.4h-5.8   v-5.8H43V44.4z"></path><path d="M44,24.6h-7.8c-0.5,0-1,0.4-1,1v7.8c0,0.5,0.4,1,1,1H44c0.5,0,1-0.4,1-1v-7.8C45,25,44.5,24.6,44,24.6z M43,32.3h-5.8v-5.8   H43V32.3z"></path><path d="M58.2,36.6h-7.8c-0.5,0-1,0.4-1,1v7.8c0,0.5,0.4,1,1,1h7.8c0.5,0,1-0.4,1-1v-7.8C59.2,37.1,58.7,36.6,58.2,36.6z    M57.2,44.4h-5.8v-5.8h5.8V44.4z"></path><path d="M43.2,50.2l-4.4,4.4L37,52.7c-0.4-0.4-1-0.4-1.4,0s-0.4,1,0,1.4l2.5,2.5c0.2,0.2,0.4,0.3,0.7,0.3c0.2,0,0.5-0.1,0.7-0.3   l5.1-5.1c0.4-0.4,0.4-1,0-1.4C44.2,49.8,43.6,49.8,43.2,50.2z"></path><path d="M58.2,24.6h-7.8c-0.5,0-1,0.4-1,1v7.8c0,0.5,0.4,1,1,1h7.8c0.5,0,1-0.4,1-1v-7.8C59.2,25,58.7,24.6,58.2,24.6z M57.2,32.3   h-5.8v-5.8h5.8V32.3z"></path><path d="M29.8,36.6H22c-0.5,0-1,0.4-1,1v7.8c0,0.5,0.4,1,1,1h7.8c0.5,0,1-0.4,1-1v-7.8C30.7,37.1,30.3,36.6,29.8,36.6z M28.8,44.4   H23v-5.8h5.8V44.4z"></path><path d="M29.8,48.7H22c-0.5,0-1,0.4-1,1v7.8c0,0.5,0.4,1,1,1h7.8c0.5,0,1-0.4,1-1v-7.8C30.7,49.1,30.3,48.7,29.8,48.7z M28.8,56.4   H23v-5.8h5.8V56.4z"></path><path d="M29.8,24.6H22c-0.5,0-1,0.4-1,1v7.8c0,0.5,0.4,1,1,1h7.8c0.5,0,1-0.4,1-1v-7.8C30.7,25,30.3,24.6,29.8,24.6z M28.8,32.3H23   v-5.8h5.8V32.3z"></path><path d="M15.5,36.6H7.8c-0.5,0-1,0.4-1,1v7.8c0,0.5,0.4,1,1,1h7.8c0.5,0,1-0.4,1-1v-7.8C16.5,37.1,16.1,36.6,15.5,36.6z M14.6,44.4   H8.8v-5.8h5.8V44.4z"></path><path d="M15.5,48.7H7.8c-0.5,0-1,0.4-1,1v7.8c0,0.5,0.4,1,1,1h7.8c0.5,0,1-0.4,1-1v-7.8C16.5,49.1,16.1,48.7,15.5,48.7z M14.6,56.4   H8.8v-5.8h5.8V56.4z"></path><path d="M15.5,24.6H7.8c-0.5,0-1,0.4-1,1v7.8c0,0.5,0.4,1,1,1h7.8c0.5,0,1-0.4,1-1v-7.8C16.5,25,16.1,24.6,15.5,24.6z M14.6,32.3   H8.8v-5.8h5.8V32.3z"></path></g></svg>