<svg height='100px' width='100px'  fill="#000000" xmlns="http://www.w3.org/2000/svg" xmlns:xlink="http://www.w3.org/1999/xlink" version="1.1" x="0px" y="0px" viewBox="0 0 128 128" enable-background="new 0 0 128 128" xml:space="preserve"><g><path d="M41,103.2c0,9.7,8.1,17.7,18.2,17.7c10,0,18.2-7.9,18.2-17.7c0-8.8-6.6-16-15.2-17.4V51.1c0-6.7,2.6-12.9,7.3-17.6   c1.2-1.2,1.2-3.1,0-4.2c-1.2-1.2-3.1-1.2-4.2,0c-5.8,5.8-9,13.6-9,21.9v34.7C47.5,87.2,41,94.4,41,103.2z M59.1,91.5   c6.7,0,12.2,5.2,12.2,11.7s-5.5,11.7-12.2,11.7S47,109.6,47,103.2S52.4,91.5,59.1,91.5z"></path><ellipse cx="43.9" cy="71.9" rx="6.1" ry="6.1"></ellipse><ellipse cx="55.1" cy="21.3" rx="4.1" ry="4.1"></ellipse><ellipse cx="72.9" cy="39" rx="3" ry="3"></ellipse><path d="M69.3,67.6V76c0,1.7,1.3,3,3,3h0c19.6,0,35.5-15.9,35.5-35.5v-8.4c0-1.7-1.4-3-3-3C85.2,32.1,69.3,48,69.3,67.6z    M101.8,38.2c0,0-11.6,33.1-26.5,34.6v-5.3C75.3,52.3,86.9,39.8,101.8,38.2z"></path><path d="M86.3,5.9c-8.8,0-16,7.2-16,16v3.4c0,1.7,1.3,3,3,3h0c8.8,0,16-7.2,16-16V8.9C89.3,7.2,88,5.9,86.3,5.9z M76.3,21.8   c0-4.4,3-8.2,7-9.4C83.3,16.8,80.3,20.5,76.3,21.8z"></path><path d="M24.2,22.1c-1.7,0-3,1.3-3,3V31c0,14.2,11.5,25.7,25.7,25.7h0c1.7,0,3-1.3,3-3v-5.9C49.9,33.6,38.4,22.1,24.2,22.1z    M27.2,31v-2.7c9.5,1.4,16.7,22.2,16.7,22.2C34.5,49,27.2,40.8,27.2,31z"></path></g></svg>