<svg height='100px' width='100px'  fill="#000000" xmlns="http://www.w3.org/2000/svg" xmlns:xlink="http://www.w3.org/1999/xlink" version="1.1" x="0px" y="0px" viewBox="0 0 48 48" style="enable-background:new 0 0 48 48;" xml:space="preserve"><g><path d="M42.8,0.3H5.2C2.3,0.3,0,2.6,0,5.5v37c0,2.9,2.3,5.2,5.2,5.2h37.6c2.9,0,5.2-2.3,5.2-5.2v-37C48,2.6,45.7,0.3,42.8,0.3z    M35.6,9.4c0,6.3-4.8,11.5-10.9,12.1l1.6-10.3c0.1-0.5-0.3-1.1-0.8-1.1c-0.5-0.1-1.1,0.3-1.1,0.8l-1.7,10.7   C16.4,21,11.4,15.8,11.4,9.4c0-2.6,0.8-5,2.3-7h19.7C34.8,4.4,35.6,6.8,35.6,9.4z M5.2,2.3h6.1c-1.2,2.1-1.9,4.5-1.9,7   c0,7.8,6.3,14.1,14.1,14.1l0,0c0,0,0,0,0,0s0,0,0,0c7.8,0,14.1-6.3,14.1-14.1c0-2.5-0.7-4.9-1.9-7h7.1c1.8,0,3.2,1.4,3.2,3.2v28.4   H2V5.5C2,3.7,3.4,2.3,5.2,2.3z M42.8,45.7H5.2c-1.8,0-3.2-1.4-3.2-3.2v-6.6h44v6.6C46,44.3,44.6,45.7,42.8,45.7z"></path><path d="M23.5,7.5C23.5,7.5,23.5,7.5,23.5,7.5c0.6,0,1-0.5,1-1l0-1.6c0-0.6-0.4-1-1-1c0,0,0,0,0,0c-0.6,0-1,0.5-1,1l0,1.6   C22.5,7,23,7.5,23.5,7.5z"></path><path d="M17,9.6c0.4,0.4,1,0.4,1.4,0c0.4-0.4,0.4-1,0-1.4l-1.1-1.1c-0.4-0.4-1-0.4-1.4,0c-0.4,0.4-0.4,1,0,1.4L17,9.6z"></path><path d="M30,9.6l1.1-1.1c0.4-0.4,0.4-1,0-1.4c-0.4-0.4-1-0.4-1.4,0l-1.1,1.1c-0.4,0.4-0.4,1,0,1.4C29,10,29.6,10,30,9.6z"></path><path d="M19.5,7.5C19.7,8,20.2,8.2,20.8,8c0.5-0.2,0.8-0.8,0.5-1.3l-0.6-1.4c-0.2-0.5-0.8-0.8-1.3-0.5c-0.5,0.2-0.8,0.8-0.5,1.3   L19.5,7.5z"></path><path d="M30.2,11.9c0.2,0.5,0.8,0.8,1.3,0.5l1.4-0.6c0.5-0.2,0.8-0.8,0.5-1.3c-0.2-0.5-0.8-0.8-1.3-0.5l-1.4,0.6   C30.2,10.8,30,11.4,30.2,11.9z"></path><path d="M13.6,10.6c-0.2,0.5,0,1.1,0.5,1.3l1.4,0.6c0.5,0.2,1.1,0,1.3-0.5c0.2-0.5,0-1.1-0.5-1.3L14.9,10   C14.4,9.8,13.8,10,13.6,10.6z"></path><path d="M26.3,8c0.5,0.2,1.1,0,1.3-0.5L28.2,6c0.2-0.5,0-1.1-0.5-1.3c-0.5-0.2-1.1,0-1.3,0.5l-0.6,1.4C25.5,7.2,25.8,7.8,26.3,8z"></path></g></svg>